<mxfile host="app.diagrams.net" modified="2023-09-17T09:26:23.470Z" agent="Mozilla/5.0 (Macintosh; Intel Mac OS X 10_15_7) AppleWebKit/537.36 (KHTML, like Gecko) Chrome/116.0.0.0 Safari/537.36" etag="LdkVoPfIwuIe88myZgRe" version="21.7.5" type="device">
  <diagram name="Page-1" id="Ao2uHZ7PI1gG7fPQQtDW">
    <mxGraphModel dx="1434" dy="767" grid="1" gridSize="10" guides="1" tooltips="1" connect="1" arrows="1" fold="1" page="1" pageScale="1" pageWidth="850" pageHeight="1100" math="0" shadow="0">
      <root>
        <mxCell id="0" />
        <mxCell id="1" parent="0" />
        <mxCell id="D27_0YUnvc1AglrIPvnK-1" value="" style="rounded=0;whiteSpace=wrap;html=1;" parent="1" vertex="1">
          <mxGeometry x="240" y="350" width="320" height="60" as="geometry" />
        </mxCell>
        <mxCell id="D27_0YUnvc1AglrIPvnK-3" value="" style="endArrow=none;html=1;rounded=0;exitX=0.45;exitY=0.967;exitDx=0;exitDy=0;exitPerimeter=0;" parent="1" edge="1">
          <mxGeometry width="50" height="50" relative="1" as="geometry">
            <mxPoint x="280" y="409.02" as="sourcePoint" />
            <mxPoint x="280" y="351" as="targetPoint" />
          </mxGeometry>
        </mxCell>
        <mxCell id="D27_0YUnvc1AglrIPvnK-4" value="" style="endArrow=none;html=1;rounded=0;exitX=0.45;exitY=0.967;exitDx=0;exitDy=0;exitPerimeter=0;" parent="1" edge="1">
          <mxGeometry width="50" height="50" relative="1" as="geometry">
            <mxPoint x="320" y="409.02" as="sourcePoint" />
            <mxPoint x="320" y="351" as="targetPoint" />
          </mxGeometry>
        </mxCell>
        <mxCell id="D27_0YUnvc1AglrIPvnK-5" value="" style="endArrow=none;html=1;rounded=0;exitX=0.45;exitY=0.967;exitDx=0;exitDy=0;exitPerimeter=0;" parent="1" edge="1">
          <mxGeometry width="50" height="50" relative="1" as="geometry">
            <mxPoint x="360" y="409.02" as="sourcePoint" />
            <mxPoint x="360" y="351" as="targetPoint" />
          </mxGeometry>
        </mxCell>
        <mxCell id="D27_0YUnvc1AglrIPvnK-6" value="" style="endArrow=none;html=1;rounded=0;exitX=0.45;exitY=0.967;exitDx=0;exitDy=0;exitPerimeter=0;" parent="1" edge="1">
          <mxGeometry width="50" height="50" relative="1" as="geometry">
            <mxPoint x="400" y="409.02" as="sourcePoint" />
            <mxPoint x="400" y="351" as="targetPoint" />
          </mxGeometry>
        </mxCell>
        <mxCell id="D27_0YUnvc1AglrIPvnK-7" value="" style="endArrow=none;html=1;rounded=0;exitX=0.45;exitY=0.967;exitDx=0;exitDy=0;exitPerimeter=0;" parent="1" edge="1">
          <mxGeometry width="50" height="50" relative="1" as="geometry">
            <mxPoint x="440" y="409.02" as="sourcePoint" />
            <mxPoint x="440" y="351" as="targetPoint" />
          </mxGeometry>
        </mxCell>
        <mxCell id="D27_0YUnvc1AglrIPvnK-8" value="" style="endArrow=none;html=1;rounded=0;exitX=0.45;exitY=0.967;exitDx=0;exitDy=0;exitPerimeter=0;" parent="1" edge="1">
          <mxGeometry width="50" height="50" relative="1" as="geometry">
            <mxPoint x="480" y="409.02" as="sourcePoint" />
            <mxPoint x="480" y="351" as="targetPoint" />
          </mxGeometry>
        </mxCell>
        <mxCell id="D27_0YUnvc1AglrIPvnK-9" value="" style="endArrow=none;html=1;rounded=0;exitX=0.45;exitY=0.967;exitDx=0;exitDy=0;exitPerimeter=0;" parent="1" edge="1">
          <mxGeometry width="50" height="50" relative="1" as="geometry">
            <mxPoint x="520" y="409.02" as="sourcePoint" />
            <mxPoint x="520" y="351" as="targetPoint" />
          </mxGeometry>
        </mxCell>
        <mxCell id="D27_0YUnvc1AglrIPvnK-11" value="MSB - Most Significant Bit" style="text;html=1;strokeColor=none;fillColor=none;align=center;verticalAlign=middle;whiteSpace=wrap;rounded=0;" parent="1" vertex="1">
          <mxGeometry x="230" y="282" width="180" height="30" as="geometry" />
        </mxCell>
        <mxCell id="D27_0YUnvc1AglrIPvnK-12" value="" style="endArrow=classic;html=1;rounded=0;" parent="1" edge="1">
          <mxGeometry width="50" height="50" relative="1" as="geometry">
            <mxPoint x="260" y="309" as="sourcePoint" />
            <mxPoint x="260" y="349" as="targetPoint" />
          </mxGeometry>
        </mxCell>
        <mxCell id="D27_0YUnvc1AglrIPvnK-13" value="X" style="text;html=1;strokeColor=none;fillColor=none;align=center;verticalAlign=middle;whiteSpace=wrap;rounded=0;fontSize=25;" parent="1" vertex="1">
          <mxGeometry x="241" y="366" width="40" height="30" as="geometry" />
        </mxCell>
        <mxCell id="D27_0YUnvc1AglrIPvnK-14" value="2&lt;sup&gt;0&lt;/sup&gt;" style="text;html=1;strokeColor=none;fillColor=none;align=center;verticalAlign=middle;whiteSpace=wrap;rounded=0;fontSize=12;horizontal=1;" parent="1" vertex="1">
          <mxGeometry x="525" y="410" width="30" height="30" as="geometry" />
        </mxCell>
        <mxCell id="D27_0YUnvc1AglrIPvnK-15" value="1" style="text;html=1;strokeColor=none;fillColor=none;align=center;verticalAlign=middle;whiteSpace=wrap;rounded=0;fontSize=25;" parent="1" vertex="1">
          <mxGeometry x="285" y="365" width="30" height="30" as="geometry" />
        </mxCell>
        <mxCell id="D27_0YUnvc1AglrIPvnK-16" value="1" style="text;html=1;strokeColor=none;fillColor=none;align=center;verticalAlign=middle;whiteSpace=wrap;rounded=0;fontSize=25;" parent="1" vertex="1">
          <mxGeometry x="325" y="365" width="30" height="30" as="geometry" />
        </mxCell>
        <mxCell id="D27_0YUnvc1AglrIPvnK-17" value="1" style="text;html=1;strokeColor=none;fillColor=none;align=center;verticalAlign=middle;whiteSpace=wrap;rounded=0;fontSize=25;" parent="1" vertex="1">
          <mxGeometry x="365" y="365" width="30" height="30" as="geometry" />
        </mxCell>
        <mxCell id="D27_0YUnvc1AglrIPvnK-18" value="1" style="text;html=1;strokeColor=none;fillColor=none;align=center;verticalAlign=middle;whiteSpace=wrap;rounded=0;fontSize=25;" parent="1" vertex="1">
          <mxGeometry x="405" y="365" width="30" height="30" as="geometry" />
        </mxCell>
        <mxCell id="D27_0YUnvc1AglrIPvnK-19" value="1" style="text;html=1;strokeColor=none;fillColor=none;align=center;verticalAlign=middle;whiteSpace=wrap;rounded=0;fontSize=25;" parent="1" vertex="1">
          <mxGeometry x="445" y="365" width="30" height="30" as="geometry" />
        </mxCell>
        <mxCell id="D27_0YUnvc1AglrIPvnK-20" value="1" style="text;html=1;strokeColor=none;fillColor=none;align=center;verticalAlign=middle;whiteSpace=wrap;rounded=0;fontSize=25;" parent="1" vertex="1">
          <mxGeometry x="485" y="365" width="30" height="30" as="geometry" />
        </mxCell>
        <mxCell id="D27_0YUnvc1AglrIPvnK-21" value="1" style="text;html=1;strokeColor=none;fillColor=none;align=center;verticalAlign=middle;whiteSpace=wrap;rounded=0;fontSize=25;" parent="1" vertex="1">
          <mxGeometry x="525" y="365" width="30" height="30" as="geometry" />
        </mxCell>
        <mxCell id="D27_0YUnvc1AglrIPvnK-22" value="Sign bit&lt;br&gt;0 --&amp;gt; +ve&lt;br&gt;1 --&amp;gt; -ve" style="text;html=1;strokeColor=none;fillColor=none;align=center;verticalAlign=middle;whiteSpace=wrap;rounded=0;" parent="1" vertex="1">
          <mxGeometry x="220" y="448" width="80" height="30" as="geometry" />
        </mxCell>
        <mxCell id="D27_0YUnvc1AglrIPvnK-23" value="" style="endArrow=classic;html=1;rounded=0;" parent="1" edge="1">
          <mxGeometry width="50" height="50" relative="1" as="geometry">
            <mxPoint x="260" y="440" as="sourcePoint" />
            <mxPoint x="260" y="410" as="targetPoint" />
          </mxGeometry>
        </mxCell>
        <mxCell id="D27_0YUnvc1AglrIPvnK-24" value="2&lt;span style=&quot;font-size: 10px;&quot;&gt;&lt;sup&gt;1&lt;/sup&gt;&lt;/span&gt;" style="text;html=1;strokeColor=none;fillColor=none;align=center;verticalAlign=middle;whiteSpace=wrap;rounded=0;fontSize=12;horizontal=1;" parent="1" vertex="1">
          <mxGeometry x="485" y="410" width="30" height="30" as="geometry" />
        </mxCell>
        <mxCell id="D27_0YUnvc1AglrIPvnK-25" value="2&lt;span style=&quot;font-size: 10px;&quot;&gt;&lt;sup&gt;2&lt;/sup&gt;&lt;/span&gt;" style="text;html=1;strokeColor=none;fillColor=none;align=center;verticalAlign=middle;whiteSpace=wrap;rounded=0;fontSize=12;horizontal=1;" parent="1" vertex="1">
          <mxGeometry x="445" y="410" width="30" height="30" as="geometry" />
        </mxCell>
        <mxCell id="D27_0YUnvc1AglrIPvnK-26" value="2&lt;span style=&quot;font-size: 10px;&quot;&gt;&lt;sup&gt;3&lt;/sup&gt;&lt;/span&gt;" style="text;html=1;strokeColor=none;fillColor=none;align=center;verticalAlign=middle;whiteSpace=wrap;rounded=0;fontSize=12;horizontal=1;" parent="1" vertex="1">
          <mxGeometry x="405" y="410" width="30" height="30" as="geometry" />
        </mxCell>
        <mxCell id="D27_0YUnvc1AglrIPvnK-27" value="2&lt;span style=&quot;font-size: 10px;&quot;&gt;&lt;sup&gt;4&lt;/sup&gt;&lt;/span&gt;" style="text;html=1;strokeColor=none;fillColor=none;align=center;verticalAlign=middle;whiteSpace=wrap;rounded=0;fontSize=12;horizontal=1;" parent="1" vertex="1">
          <mxGeometry x="365" y="410" width="30" height="30" as="geometry" />
        </mxCell>
        <mxCell id="D27_0YUnvc1AglrIPvnK-28" value="2&lt;span style=&quot;font-size: 10px;&quot;&gt;&lt;sup&gt;5&lt;/sup&gt;&lt;/span&gt;" style="text;html=1;strokeColor=none;fillColor=none;align=center;verticalAlign=middle;whiteSpace=wrap;rounded=0;fontSize=12;horizontal=1;" parent="1" vertex="1">
          <mxGeometry x="325" y="410" width="30" height="30" as="geometry" />
        </mxCell>
        <mxCell id="D27_0YUnvc1AglrIPvnK-29" value="2&lt;span style=&quot;font-size: 10px;&quot;&gt;&lt;sup&gt;6&lt;/sup&gt;&lt;/span&gt;" style="text;html=1;strokeColor=none;fillColor=none;align=center;verticalAlign=middle;whiteSpace=wrap;rounded=0;fontSize=12;horizontal=1;" parent="1" vertex="1">
          <mxGeometry x="285" y="410" width="30" height="30" as="geometry" />
        </mxCell>
        <mxCell id="D27_0YUnvc1AglrIPvnK-30" value="=&amp;nbsp; 64 + 32 + 16 + 8 + 4 + 2 + 1&lt;br&gt;= 127&amp;nbsp; &amp;nbsp; &amp;nbsp; &amp;nbsp; &amp;nbsp; &amp;nbsp; &amp;nbsp; &amp;nbsp; &amp;nbsp; &amp;nbsp; &amp;nbsp; &amp;nbsp; &amp;nbsp; &amp;nbsp; &amp;nbsp; &amp;nbsp; &amp;nbsp; &amp;nbsp; &amp;nbsp; &amp;nbsp;" style="text;html=1;strokeColor=none;fillColor=none;align=center;verticalAlign=middle;rounded=0;labelPosition=center;verticalLabelPosition=middle;whiteSpace=wrap;" parent="1" vertex="1">
          <mxGeometry x="330" y="458" width="190" height="30" as="geometry" />
        </mxCell>
      </root>
    </mxGraphModel>
  </diagram>
</mxfile>
